<?xml version="1.0" encoding="utf-8"?>
<!-- Generator: Adobe Illustrator 17.0.0, SVG Export Plug-In . SVG Version: 6.00 Build 0)  -->
<!DOCTYPE svg PUBLIC "-//W3C//DTD SVG 1.1//EN" "http://www.w3.org/Graphics/SVG/1.1/DTD/svg11.dtd">
<svg version="1.1" id="Layer_1" xmlns="http://www.w3.org/2000/svg" xmlns:xlink="http://www.w3.org/1999/xlink" x="0px" y="0px"
   width="392px" height="112px" viewBox="0 0 392 112" style="enable-background:new 0 0 392 112;" xml:space="preserve">
<style type="text/css">
  .st0{fill:#CF3328;}
  .st1{fill:#FFFFFF;}
</style>
<g>
  <g>
    <path class="st0" d="M83.3,26.3c-17.6-10.3-39.3-15-39.3-15S22.3,16,4.8,26.3H4.7V41c0,47.5,39.4,59.1,39.4,59.1
      S83.4,86.7,83.4,41L83.3,26.3L83.3,26.3z"/>
    <g>
      <path class="st1" d="M15.1,54.4v-5l17-8.8v5.7l-10.9,5.7l10.9,5.7v5.7L15.1,54.4z"/>
      <path class="st1" d="M49.5,34.5h5.2L39.5,69.2h-5.2L49.5,34.5z"/>
      <path class="st1" d="M73,49.4v5l-17,8.8v-5.7l10.9-5.7L56,46.2v-5.7L73,49.4z"/>
    </g>
  </g>
  <g>
    <g>
      <path class="st1" d="M120.8,55.6c-0.1,2.5-0.3,4.3-0.5,5.4c-0.3,1.2-0.8,2.1-1.4,2.7c-0.8,0.8-2.3,1.2-4.4,1.2H107
        c-2.1,0-3.6-0.4-4.4-1.2c-0.8-0.8-1.4-2-1.8-3.6c-0.4-1.6-0.6-4.2-0.6-7.8c0-3.6,0.2-6.2,0.6-7.8c0.4-1.6,1-2.8,1.8-3.6
        c0.8-0.8,2.3-1.2,4.4-1.2h7.5c2.1,0,3.6,0.4,4.4,1.2c0.7,0.6,1.2,1.5,1.5,2.7c0.3,1.2,0.5,2.9,0.5,5.2h-5.5
        c-0.1-2.3-0.3-3.7-0.7-4.1c-0.2-0.2-0.8-0.4-1.7-0.4h-4.7c-0.9,0-1.5,0.1-1.7,0.4c-0.5,0.5-0.8,3-0.8,7.6c0,4.5,0.3,7.1,0.8,7.6
        c0.3,0.2,0.8,0.3,1.7,0.3h4.7c0.1,0,0.1,0,0.2,0c0.7,0,1.3-0.1,1.5-0.3c0.4-0.4,0.6-1.9,0.7-4.4H120.8z"/>
      <path class="st1" d="M132.7,39.8h7.5c2.1,0,3.5,0.4,4.3,1.2c0.8,0.8,1.4,2,1.8,3.6s0.6,4.2,0.6,7.8c0,3.5-0.2,6.1-0.6,7.8
        c-0.4,1.6-1,2.8-1.8,3.6c-0.8,0.8-2.2,1.2-4.3,1.2h-7.5c-2.1,0-3.5-0.4-4.3-1.2c-0.8-0.8-1.4-2-1.8-3.6c-0.4-1.6-0.6-4.2-0.6-7.8
        c0-3.6,0.2-6.2,0.6-7.8c0.4-1.6,1-2.8,1.8-3.6C129.2,40.2,130.6,39.8,132.7,39.8z M131.5,52.4c0,4.5,0.3,7.1,0.8,7.6
        c0.2,0.2,0.8,0.3,1.7,0.3h4.8c0.1,0,0.1,0,0.2,0c0.7,0,1.3-0.1,1.5-0.3c0.5-0.5,0.8-3.1,0.8-7.6c0-4.6-0.3-7.1-0.8-7.6
        c-0.2-0.2-0.8-0.4-1.7-0.4H134c-0.9,0-1.5,0.1-1.7,0.4C131.7,45.3,131.5,47.8,131.5,52.4z"/>
      <path class="st1" d="M153.4,39.8h11.5c1.7,0,3.1,0.2,4.1,0.5c1,0.3,1.9,0.8,2.6,1.5c0.8,0.8,1.4,2.1,1.8,3.7
        c0.4,1.6,0.6,3.9,0.6,7c0,3-0.2,5.3-0.6,7c-0.4,1.6-1,2.8-1.8,3.7c-0.7,0.7-1.5,1.2-2.6,1.5c-1,0.3-2.4,0.5-4.1,0.5h-11.5V39.8z
         M168.4,52.4c0-2.5-0.1-4.2-0.2-5.2c-0.2-1-0.4-1.7-0.8-2c-0.5-0.5-1.5-0.7-2.9-0.7h-5.5v15.9h5.5c1.5,0,2.4-0.2,2.9-0.7
        c0.4-0.3,0.7-1,0.8-2C168.3,56.6,168.4,54.9,168.4,52.4z"/>
      <path class="st1" d="M199.1,60.4V65h-18.9V39.8h18.9v4.6h-13.4v5.2h10.5v4.6h-10.5v6.1H199.1z"/>
      <path class="st1" d="M232,44.5h-12.5v6h9.5v4.6h-9.5V65H214V39.8h18V44.5z"/>
      <path class="st1" d="M255.5,60.4V65h-18.9V39.8h18.9v4.6h-13.4v5.2h10.5v4.6h-10.5v6.1H255.5z"/>
      <path class="st1" d="M266.2,39.8v20.5h12.3V65h-17.8V39.8H266.2z"/>
      <path class="st1" d="M288.6,39.8v20.5h12.3V65H283V39.8H288.6z"/>
      <path class="st1" d="M311.4,39.8h7.5c2.1,0,3.5,0.4,4.3,1.2c0.8,0.8,1.4,2,1.8,3.6s0.6,4.2,0.6,7.8c0,3.5-0.2,6.1-0.6,7.8
        c-0.4,1.6-1,2.8-1.8,3.6c-0.8,0.8-2.2,1.2-4.3,1.2h-7.5c-2.1,0-3.5-0.4-4.3-1.2c-0.8-0.8-1.4-2-1.8-3.6c-0.4-1.6-0.6-4.2-0.6-7.8
        c0-3.6,0.2-6.2,0.6-7.8c0.4-1.6,1-2.8,1.8-3.6C307.8,40.2,309.3,39.8,311.4,39.8z M310.2,52.4c0,4.5,0.3,7.1,0.8,7.6
        c0.2,0.2,0.8,0.3,1.7,0.3h4.8c0.1,0,0.1,0,0.2,0c0.7,0,1.3-0.1,1.5-0.3c0.5-0.5,0.8-3.1,0.8-7.6c0-4.6-0.3-7.1-0.8-7.6
        c-0.2-0.2-0.8-0.4-1.7-0.4h-4.8c-0.9,0-1.5,0.1-1.7,0.4C310.4,45.3,310.2,47.8,310.2,52.4z"/>
      <path class="st1" d="M364.4,39.8l-5.1,23.7c-0.1,0.6-0.3,1-0.6,1.3c-0.3,0.2-0.8,0.3-1.5,0.3h-3.9c-0.7,0-1.2-0.1-1.5-0.3
        c-0.3-0.2-0.5-0.7-0.7-1.3l-3.4-15.1l-0.4,0l-3.4,15.1c-0.1,0.6-0.4,1.1-0.7,1.3c-0.3,0.2-0.8,0.3-1.5,0.3h-4.1
        c-0.7,0-1.2-0.1-1.5-0.3c-0.3-0.2-0.5-0.7-0.6-1.3l-5.3-23.7h6.4l3.2,18.5h0.4l3.8-16.8c0.1-0.7,0.4-1.1,0.7-1.4
        c0.3-0.3,0.8-0.4,1.5-0.4h3c0.7,0,1.2,0.1,1.5,0.4c0.3,0.2,0.5,0.7,0.7,1.4l3.8,16.8h0.4l3.2-18.5H364.4z"/>
      <path class="st1" d="M388.9,57.4c0,3.2-0.6,5.3-1.7,6.4c-0.8,0.8-2.1,1.2-3.9,1.2h-9.3c-2,0-3.4-0.4-4.1-1.1
        c-0.5-0.5-0.9-1.3-1.1-2.3c-0.2-1-0.3-2.6-0.4-4.8h5.5c0,1.9,0.1,3,0.3,3.2c0.2,0.2,0.8,0.3,1.6,0.3h5.4c1,0,1.6-0.1,1.8-0.3
        c0.2-0.2,0.4-1.1,0.4-2.5c0-1.1-0.1-1.8-0.4-2.1c-0.2-0.2-0.7-0.4-1.6-0.4l-7.7-0.8c-1.6-0.2-2.8-0.6-3.6-1.3
        c-0.5-0.5-0.9-1.2-1.1-2c-0.2-0.8-0.3-2-0.3-3.7c0-3,0.6-5.1,1.7-6.2c0.8-0.8,2.1-1.2,3.8-1.2h8.6c2.1,0,3.5,0.4,4.2,1.1
        c0.5,0.6,0.9,1.3,1.2,2.2c0.2,0.9,0.4,2.5,0.4,4.6h-5.5c0-1.7-0.2-2.7-0.4-3c-0.2-0.2-0.8-0.3-1.6-0.3h-5c-0.8,0-1.4,0.1-1.6,0.3
        c-0.2,0.2-0.3,1-0.3,2.3c0,1.1,0.1,1.8,0.4,2c0.2,0.2,0.8,0.3,1.9,0.4l7.7,0.8c1.5,0.2,2.6,0.6,3.3,1.3c0.5,0.5,0.8,1.2,1,2
        C388.8,54.5,388.9,55.7,388.9,57.4z"/>
    </g>
  </g>
</g>
</svg>
